<svg xmlns="http://www.w3.org/2000/svg" width="18" height="18" viewBox="0 0 18 18">
  <g id="ribbon_quiz" transform="translate(3911 1092)">
    <rect id="Rectangle_5708" data-name="Rectangle 5708" width="18" height="18" rx="6" transform="translate(-3911 -1092)" fill="#ed2227"/>
    <g id="Group_9769" data-name="Group 9769" transform="translate(-3879.059 -1346.941) rotate(90)">
      <rect id="Rectangle_4173" data-name="Rectangle 4173" width="14" height="14" transform="translate(256.941 15.941)" fill="#fff" opacity="0"/>
      <g id="Group_6647" data-name="Group 6647" transform="translate(258.157 28.089) rotate(-90)">
        <path id="Path_4460" data-name="Path 4460" d="M6.594,3.3a3.3,3.3,0,1,0-3.3,3.3A3.3,3.3,0,0,0,6.594,3.3ZM4.121,4.672a1.681,1.681,0,1,1,.561-.561l.45.45a.4.4,0,1,1-.561.561Zm-.228-.827a.888.888,0,1,0-.039.039Z" transform="translate(3.69 0.58)" fill="#fff" fill-rule="evenodd"/>
        <path id="Path_4461" data-name="Path 4461" d="M4.062,0h.025a.45.45,0,1,1-.079.893,3.394,3.394,0,0,0-.6.071A3.208,3.208,0,0,0,1.7,6.231,3.4,3.4,0,0,1,2.522,8H5.686a.446.446,0,0,1,.877.118l-.02.328V9.11a1.112,1.112,0,0,1-.7,1.033,1.77,1.77,0,0,1-3.474,0,1.112,1.112,0,0,1-.7-1.033V8.445a2.475,2.475,0,0,0-.627-1.622A4.1,4.1,0,0,1,3.222.091,4.288,4.288,0,0,1,4.062,0Zm.8,10.218H3.337a.863.863,0,0,0,1.529,0Zm.784-1.327h-3.1V9.11a.219.219,0,0,0,.219.219H5.432a.219.219,0,0,0,.219-.219Z" fill="#fff" fill-rule="evenodd"/>
      </g>
    </g>
  </g>
</svg>
